<svg width="34" height="29" viewBox="0 0 34 29" fill="none" xmlns="http://www.w3.org/2000/svg">
<path fill-rule="evenodd" clip-rule="evenodd" d="M15.8589 0.762409C15.8589 0.341346 15.5176 0 15.0964 0H0.762408C0.341345 0 0 0.341346 0 0.762409V5.4988C0 5.9198 0.341345 6.26121 0.762408 6.26121H7.23614C7.77227 6.26121 8.14094 6.79993 7.94683 7.29961L2.41002 21.5535C2.21589 22.0532 2.58458 22.5919 3.12071 22.5919H9.05351C9.23582 22.5919 9.35193 22.3972 9.26518 22.2367C8.53274 20.5869 8.16652 18.7579 8.16652 16.7498C8.16652 13.0695 9.39678 9.99077 11.8573 7.51355C12.9222 6.43123 14.1023 5.58312 15.3976 4.96923C15.6745 4.83794 15.8589 4.56345 15.8589 4.25707V0.762409Z" fill="black"/>
<path d="M32.4789 14.6685C32.8158 14.6685 33.0889 14.9416 33.0889 15.2784V17.3473C33.0889 20.5747 32.0424 23.2427 29.9494 25.3512C27.8781 27.4599 25.1485 28.5141 21.761 28.5141C18.2225 28.5141 15.3311 27.3952 13.0872 25.1575C10.8432 22.8984 9.72119 20.0906 9.72119 16.734C9.72119 13.3776 10.8432 10.5696 13.0872 8.31043C15.3311 6.02976 18.136 4.88934 21.5021 4.88934C23.6165 4.88934 25.5477 5.3628 27.2955 6.30941C28.8668 7.15019 30.1402 8.25401 31.1159 9.6207C31.3176 9.9034 31.2185 10.2935 30.9168 10.4651L26.4654 12.998C26.1859 13.1571 25.8344 13.0682 25.6261 12.8231C24.7146 11.7512 23.3831 11.2152 21.6315 11.2152C20.0132 11.2152 18.6972 11.7315 17.683 12.7643C16.6905 13.797 16.1942 15.1311 16.1942 16.7663C16.1942 18.3155 16.658 19.6709 17.5859 20.8329C18.5137 21.9733 19.9486 22.5434 21.8904 22.5434C23.7105 22.5434 25.0407 22.0198 25.8814 20.9724C26.1618 20.623 25.8728 20.1551 25.4248 20.1551H22.1768C21.8398 20.1551 21.5669 19.882 21.5669 19.5451V15.2784C21.5669 14.9416 21.8398 14.6685 22.1768 14.6685H32.4789Z" fill="black"/>
</svg>
